<svg width="12" height="15" viewBox="0 0 12 15" fill="none" xmlns="http://www.w3.org/2000/svg">
<path fill-rule="evenodd" clip-rule="evenodd" d="M2.36161 8.2621C2.54585 8.33892 2.71241 8.2655 2.76612 8.05678C2.80283 7.91334 2.89121 7.54962 2.93132 7.39802C2.98571 7.19203 2.96463 7.12064 2.81439 6.94185C2.48874 6.55026 2.28139 6.04582 2.28139 5.33131C2.28139 3.25711 3.81036 1.39979 6.26187 1.39979C8.43397 1.39979 9.62641 2.74655 9.62641 4.54541C9.62641 6.91261 8.59441 8.90998 7.0634 8.90998C6.217 8.90998 5.58407 8.19887 5.78666 7.32868C6.03004 6.2892 6.50049 5.16678 6.50049 4.41624C6.50049 3.74456 6.14494 3.18369 5.41003 3.18369C4.54527 3.18369 3.85047 4.09128 3.85047 5.30819C3.85047 6.08253 4.10881 6.60669 4.10881 6.60669C4.10881 6.60669 3.22433 10.4131 3.06865 11.08C2.76 12.4071 3.02242 14.0339 3.04417 14.1985C3.05777 14.2957 3.18082 14.3188 3.23657 14.2454C3.31611 14.14 4.34675 12.849 4.69619 11.56C4.79545 11.1942 5.26522 9.30361 5.26522 9.30361C5.54599 9.84748 6.36724 10.3254 7.24016 10.3254C9.83988 10.3254 11.6034 7.9215 11.6034 4.70177C11.6034 2.26659 9.57134 0 6.48418 0C2.64239 0 0.704834 2.7955 0.704834 5.12667C0.704834 6.5387 1.23239 7.79505 2.36161 8.2621Z" fill="white"/>
</svg>
